<svg width="24" height="24" viewBox="0 0 24 24" fill="none" xmlns="http://www.w3.org/2000/svg">
<path d="M12 6C10.8133 6 9.65327 6.35189 8.66658 7.01118C7.67988 7.67047 6.91085 8.60754 6.45672 9.7039C6.0026 10.8003 5.88378 12.0067 6.11529 13.1705C6.3468 14.3344 6.91824 15.4035 7.75736 16.2426C8.59647 17.0818 9.66557 17.6532 10.8295 17.8847C11.9933 18.1162 13.1997 17.9974 14.2961 17.5433C15.3925 17.0892 16.3295 16.3201 16.9888 15.3334C17.6481 14.3467 18 13.1867 18 12C18 10.4087 17.3679 8.88258 16.2426 7.75736C15.1174 6.63214 13.5913 6 12 6ZM12 15.6C11.288 15.6 10.592 15.3889 9.99995 14.9933C9.40793 14.5977 8.94651 14.0355 8.67403 13.3777C8.40156 12.7198 8.33027 11.996 8.46917 11.2977C8.60808 10.5993 8.95095 9.95788 9.45442 9.45442C9.95788 8.95095 10.5993 8.60808 11.2977 8.46917C11.996 8.33027 12.7198 8.40156 13.3777 8.67403C14.0355 8.94651 14.5977 9.40793 14.9933 9.99995C15.3889 10.592 15.6 11.288 15.6 12C15.6 12.9548 15.2207 13.8705 14.5456 14.5456C13.8705 15.2207 12.9548 15.6 12 15.6ZM18 4.8C17.7627 4.8 17.5307 4.87038 17.3333 5.00224C17.136 5.13409 16.9822 5.32151 16.8913 5.54078C16.8005 5.76005 16.7768 6.00133 16.8231 6.23411C16.8694 6.46689 16.9836 6.68071 17.1515 6.84853C17.3193 7.01635 17.5331 7.13064 17.7659 7.17694C17.9987 7.22325 18.2399 7.19948 18.4592 7.10866C18.6785 7.01783 18.8659 6.86402 18.9978 6.66668C19.1296 6.46935 19.2 6.23734 19.2 6C19.2 5.68174 19.0736 5.37652 18.8485 5.15147C18.6235 4.92643 18.3183 4.8 18 4.8ZM23.928 7.488C23.9081 6.46251 23.7133 5.44794 23.352 4.488C23.0169 3.61448 22.5019 2.82119 21.8404 2.15964C21.1788 1.49808 20.3855 0.98306 19.512 0.648C18.5521 0.286679 17.5375 0.0918812 16.512 0.0719999C15.348 -6.70552e-08 14.964 0 12 0C9.036 0 8.652 -6.70552e-08 7.488 0.0719999C6.46251 0.0918812 5.44794 0.286679 4.488 0.648C3.61448 0.98306 2.82119 1.49808 2.15964 2.15964C1.49808 2.82119 0.98306 3.61448 0.648 4.488C0.286679 5.44794 0.0918812 6.46251 0.0719999 7.488C-6.70552e-08 8.664 0 9.048 0 12C0 14.952 -6.70552e-08 15.336 0.0719999 16.512C0.0918812 17.5375 0.286679 18.5521 0.648 19.512C0.98306 20.3855 1.49808 21.1788 2.15964 21.8404C2.82119 22.5019 3.61448 23.0169 4.488 23.352C5.44794 23.7133 6.46251 23.9081 7.488 23.928C8.688 23.928 9.036 24 12 24C14.964 24 15.348 24 16.512 23.928C17.5375 23.9081 18.5521 23.7133 19.512 23.352C20.3855 23.0169 21.1788 22.5019 21.8404 21.8404C22.5019 21.1788 23.0169 20.3855 23.352 19.512C23.7133 18.5521 23.9081 17.5375 23.928 16.512C23.928 15.312 24 14.952 24 12C24 9.048 24 8.664 23.928 7.488ZM21.528 16.404C21.507 17.1655 21.3652 17.9189 21.108 18.636C20.8953 19.2028 20.5592 19.7152 20.124 20.136C19.7057 20.5714 19.1923 20.9041 18.624 21.108C17.9052 21.3757 17.1468 21.5217 16.38 21.54C15.252 21.54 14.904 21.6 11.988 21.6C9.072 21.6 8.736 21.6 7.608 21.6C6.84242 21.5802 6.0849 21.4385 5.364 21.18C4.79719 20.9673 4.2848 20.6312 3.864 20.196C3.42859 19.7777 3.0959 19.2643 2.892 18.696C2.62537 17.9811 2.47938 17.2268 2.46 16.464C2.46 15.264 2.46 14.964 2.46 12.06C2.46 9.156 2.46 8.808 2.46 7.656C2.48068 6.88945 2.62661 6.13144 2.892 5.412C3.09907 4.84876 3.43144 4.33994 3.864 3.924C4.28229 3.48859 4.79569 3.1559 5.364 2.952C6.08279 2.68428 6.84119 2.53827 7.608 2.52C8.736 2.4 9.084 2.4 12 2.4C14.916 2.4 15.264 2.4 16.392 2.4C17.1626 2.41959 17.9247 2.56553 18.648 2.832C19.2112 3.03907 19.7201 3.37144 20.136 3.804C20.5714 4.22229 20.9041 4.73569 21.108 5.304C21.4018 6.03428 21.5682 6.8095 21.6 7.596C21.6 8.796 21.66 9.096 21.66 12C21.66 14.904 21.6 15.252 21.6 16.404H21.528Z" fill="#212121"/>
</svg>
