<svg width="18" height="16" viewBox="0 0 18 16" fill="none" xmlns="http://www.w3.org/2000/svg">
<path d="M0 5.057V12.5C0 13.2956 0.31607 14.0587 0.87868 14.6213C1.44129 15.1839 2.20435 15.5 3 15.5H15C15.7956 15.5 16.5587 15.1839 17.1213 14.6213C17.6839 14.0587 18 13.2956 18 12.5V3.5C18 2.70435 17.6839 1.94129 17.1213 1.37868C16.5587 0.81607 15.7956 0.5 15 0.5H3C2.20435 0.5 1.44129 0.81607 0.87868 1.37868C0.31607 1.94129 0 2.70435 0 3.5V5.057ZM3 2H15C15.3978 2 15.7794 2.15804 16.0607 2.43934C16.342 2.72064 16.5 3.10218 16.5 3.5V4.61L9 8.648L1.5 4.61V3.5C1.5 3.10218 1.65804 2.72064 1.93934 2.43934C2.22064 2.15804 2.60218 2 3 2ZM1.5 6.314L8.6445 10.16C8.75376 10.2188 8.87591 10.2496 9 10.2496C9.12409 10.2496 9.24624 10.2188 9.3555 10.16L16.5 6.314V12.5C16.5 12.8978 16.342 13.2794 16.0607 13.5607C15.7794 13.842 15.3978 14 15 14H3C2.60218 14 2.22064 13.842 1.93934 13.5607C1.65804 13.2794 1.5 12.8978 1.5 12.5V6.314Z" fill="black"/>
</svg>
