<svg width="16" height="22" viewBox="0 0 16 22" fill="none" xmlns="http://www.w3.org/2000/svg">
<path d="M3.05605 1.41799L4.22305 1.06699C4.86234 0.874217 5.54993 0.920624 6.15752 1.19755C6.76511 1.47448 7.25119 1.96302 7.52505 2.57199L8.42705 4.57799C8.66251 5.1018 8.72808 5.68617 8.61456 6.24913C8.50104 6.81209 8.21411 7.32538 7.79405 7.71699L6.30005 9.10999C6.25638 9.15069 6.22871 9.20567 6.22205 9.26499C6.17805 9.66199 6.44705 10.435 7.06705 11.51C7.51805 12.291 7.92705 12.84 8.27405 13.147C8.51605 13.362 8.64905 13.408 8.70605 13.392L10.716 12.777C11.265 12.6091 11.8527 12.6172 12.3967 12.8001C12.9408 12.983 13.414 13.3316 13.75 13.797L15.031 15.573C15.4206 16.1131 15.6009 16.7762 15.5386 17.4392C15.4763 18.1021 15.1755 18.72 14.692 19.178L13.806 20.018C13.3358 20.4633 12.7583 20.7792 12.1297 20.935C11.5011 21.0908 10.8428 21.0812 10.219 20.907C7.46505 20.138 4.99605 17.814 2.78405 13.983C0.569049 10.147 -0.207951 6.84299 0.508049 4.06999C0.669225 3.44633 0.988335 2.8747 1.43462 2.41019C1.88091 1.94569 2.43933 1.60398 3.05605 1.41799ZM3.48905 2.85499C3.11912 2.96645 2.78413 3.17128 2.51633 3.44976C2.24853 3.72824 2.05695 4.07099 1.96005 4.44499C1.35805 6.77699 2.04705 9.70599 4.08305 13.233C6.11605 16.755 8.30505 18.815 10.623 19.463C10.9972 19.5672 11.3919 19.5728 11.7689 19.4792C12.1458 19.3856 12.4921 19.1961 12.774 18.929L13.661 18.089C13.8809 17.8808 14.0176 17.5999 14.046 17.2984C14.0743 16.997 13.9922 16.6955 13.8151 16.45L12.535 14.675C12.3823 14.4632 12.1671 14.3046 11.9196 14.2213C11.6721 14.1381 11.4047 14.1345 11.155 14.211L9.14005 14.828C7.97005 15.176 6.90805 14.235 5.76805 12.26C5.00005 10.93 4.64205 9.89999 4.73105 9.09899C4.77805 8.68299 4.97105 8.29899 5.27705 8.01299L6.77105 6.61999C6.96207 6.44201 7.09257 6.20868 7.14422 5.95274C7.19587 5.69681 7.16609 5.43113 7.05905 5.19299L6.15705 3.18699C6.03257 2.9104 5.81177 2.68851 5.53579 2.56266C5.25982 2.43682 4.9475 2.41561 4.65705 2.50299L3.48905 2.85499Z" fill="#212121"/>
</svg>
