<svg width="20" height="19" viewBox="0 0 20 19" fill="none" xmlns="http://www.w3.org/2000/svg">
<path d="M18.5525 0.997002C18.3117 1.01452 18.0754 1.071 17.8527 1.16425H17.8497C17.636 1.249 16.6197 1.6765 15.0747 2.3245L9.53822 4.65625C5.56547 6.32875 1.66022 7.97575 1.66022 7.97575L1.70672 7.95775C1.70672 7.95775 1.43747 8.04625 1.15622 8.239C0.982463 8.34957 0.832947 8.49424 0.716717 8.66425C0.578717 8.86675 0.467717 9.1765 0.508967 9.49675C0.576467 10.0383 0.927467 10.363 1.17947 10.5423C1.43447 10.7238 1.67747 10.8085 1.67747 10.8085H1.68347L5.34572 12.0423C5.50997 12.5695 6.46172 15.6985 6.69047 16.4193C6.82547 16.8498 6.95672 17.119 7.12097 17.3245C7.20047 17.4295 7.29347 17.5173 7.40522 17.5878C7.46331 17.6215 7.52526 17.6482 7.58972 17.6673L7.55222 17.6583C7.56347 17.6613 7.57247 17.6703 7.58072 17.6733C7.61072 17.6815 7.63097 17.6845 7.66922 17.6905C8.24897 17.866 8.71472 17.506 8.71472 17.506L8.74097 17.485L10.9032 15.5163L14.5272 18.2965L14.6097 18.3318C15.365 18.6633 16.13 18.4788 16.5342 18.1533C16.9415 17.8255 17.0997 17.4063 17.0997 17.4063L17.126 17.3388L19.9265 2.992C20.006 2.638 20.0262 2.3065 19.9385 1.98475C19.848 1.65912 19.639 1.37906 19.3527 1.1995C19.1123 1.05334 18.8335 0.982788 18.5525 0.997002ZM18.4767 2.5345C18.4737 2.58175 18.4827 2.5765 18.4617 2.66725V2.6755L15.6875 16.873C15.6755 16.8933 15.6552 16.9375 15.5997 16.9818C15.5412 17.0283 15.4947 17.0575 15.251 16.9608L10.8185 13.5625L8.14097 16.003L8.70347 12.4105L15.9455 5.6605C16.244 5.383 16.1442 5.3245 16.1442 5.3245C16.1652 4.984 15.6935 5.22475 15.6935 5.22475L6.56147 10.882L6.55847 10.867L2.18147 9.39325V9.39025L2.17022 9.388C2.17789 9.38545 2.1854 9.38245 2.19272 9.379L2.21672 9.367L2.23997 9.35875C2.23997 9.35875 6.14822 7.71175 10.121 6.03925C12.11 5.2015 14.114 4.35775 15.6552 3.70675C16.5693 3.322 17.4843 2.9395 18.4002 2.55925C18.4617 2.53525 18.4325 2.53525 18.4767 2.53525V2.5345Z" fill="#212121"/>
</svg>
